<?xml version="1.0" standalone="no"?>
<!DOCTYPE svg PUBLIC "-//W3C//DTD SVG 20010904//EN"
 "http://www.w3.org/TR/2001/REC-SVG-20010904/DTD/svg10.dtd">
<svg version="1.0" xmlns="http://www.w3.org/2000/svg"
 width="260.000000pt" height="260.000000pt" viewBox="0 0 260.000000 260.000000"
 preserveAspectRatio="xMidYMid meet">
<metadata>
Created by potrace 1.14, written by Peter Selinger 2001-2017
</metadata>
<g transform="translate(0.000000,260.000000) scale(0.100000,-0.100000)"
fill="#000000" stroke="none">
<path d="M0 1300 l0 -1300 1300 0 1300 0 0 1300 0 1300 -1300 0 -1300 0 0
-1300z m2403 -15 c-58 -176 -111 -323 -117 -328 -6 -4 -69 -6 -141 -5 l-130 3
-107 320 c-59 176 -107 323 -108 328 0 4 58 7 130 7 l129 0 10 -37 c6 -21 24
-96 41 -168 35 -149 39 -160 46 -153 3 3 24 84 48 179 l43 174 124 5 c68 3
127 3 131 0 4 -3 -40 -150 -99 -325z m-2055 263 c6 -35 19 -116 29 -180 10
-65 20 -118 23 -118 3 0 22 73 43 163 21 89 41 170 44 180 4 16 16 17 110 15
l106 -3 39 -165 c22 -91 43 -169 47 -173 5 -4 21 71 37 167 l28 176 119 0
c119 0 119 0 113 -22 -3 -13 -40 -156 -83 -318 -42 -162 -81 -301 -86 -307 -7
-9 -44 -13 -123 -13 l-113 0 -11 38 c-25 92 -60 243 -60 261 0 12 -7 21 -15
21 -8 0 -15 -8 -15 -17 0 -29 -62 -277 -73 -290 -13 -18 -221 -18 -235 0 -5 6
-38 122 -72 257 -70 278 -88 347 -96 372 -5 17 4 18 114 18 l119 0 11 -62z
m1437 -33 l0 -90 -87 -3 -88 -3 -2 -232 -3 -232 -110 0 -110 0 -5 230 -5 230
-87 3 -87 3 -3 90 c-2 50 -1 93 1 95 3 2 135 3 295 2 l291 -3 0 -90z"/>
</g>
</svg>
